<?xml version="1.0" encoding="UTF-8"?>
<svg version="1.1" xmlns="http://www.w3.org/2000/svg" width="168" height="168">
<path d="M0,0 L4,0 L4,1 L5,1 L5,5 L11,5 L11,0 L15,0 L15,5 L21,5 L21,0 L26,0 L26,5 L32,5 L32,0 L37,0 L37,5 L43,5 L43,0 L48,0 L48,5 L53,5 L53,1 L54,1 L54,0 L58,0 L58,5 L64,5 L64,0 L69,0 L69,5 L75,5 L75,0 L80,0 L80,5 L93,5 L93,6 L96,6 L96,7 L97,7 L97,8 L98,8 L98,10 L99,10 L99,12 L100,12 L100,126 L99,126 L99,127 L-20,127 L-20,69 L-21,69 L-21,14 L-20,14 L-20,10 L-19,10 L-19,9 L-18,9 L-18,7 L-16,7 L-16,6 L-14,6 L-14,5 L0,5 Z " fill="#FAF8EB" transform="translate(46,21)"/>
<path d="M0,0 L4,0 L4,1 L5,1 L5,5 L11,5 L11,0 L15,0 L15,5 L21,5 L21,0 L26,0 L26,5 L32,5 L32,0 L37,0 L37,5 L43,5 L43,0 L48,0 L48,5 L53,5 L53,1 L54,1 L54,0 L58,0 L58,5 L64,5 L64,0 L69,0 L69,5 L75,5 L75,0 L80,0 L80,5 L93,5 L93,6 L96,6 L96,7 L97,7 L97,8 L98,8 L98,10 L99,10 L99,12 L100,12 L100,126 L99,126 L99,127 L-20,127 L-20,69 L-21,69 L-21,14 L-20,14 L-20,10 L-19,10 L-19,9 L-18,9 L-18,7 L-16,7 L-16,6 L-14,6 L-14,5 L0,5 Z M-16,34 L-16,122 L95,122 L95,34 Z " fill="#E67890" transform="translate(46,21)"/>
<path d="M0,0 L4,0 L4,1 L5,1 L5,5 L11,5 L11,0 L15,0 L15,5 L21,5 L21,0 L26,0 L26,5 L32,5 L32,0 L37,0 L37,5 L43,5 L43,0 L48,0 L48,5 L53,5 L53,1 L54,1 L54,0 L58,0 L58,5 L64,5 L64,0 L69,0 L69,5 L75,5 L75,0 L80,0 L80,5 L93,5 L93,6 L96,6 L96,7 L97,7 L97,8 L98,8 L98,10 L99,10 L99,12 L100,12 L100,126 L99,126 L99,127 L-20,127 L-20,69 L-21,69 L-21,14 L-20,14 L-20,10 L-19,10 L-19,9 L-18,9 L-18,7 L-16,7 L-16,6 L-14,6 L-14,5 L0,5 Z M-9,9 L-9,10 L-12,10 L-12,11 L-13,11 L-13,12 L-14,12 L-14,13 L-15,13 L-15,14 L-16,14 L-16,122 L95,122 L95,114 L96,114 L96,15 L95,15 L95,13 L94,13 L94,12 L93,12 L93,11 L91,11 L91,10 L89,10 L89,9 L79,9 L79,15 L75,15 L75,10 L68,10 L68,15 L65,15 L65,10 L58,10 L58,15 L54,15 L54,10 L47,10 L47,15 L43,15 L43,10 L36,10 L36,15 L32,15 L32,10 L25,10 L25,15 L22,15 L22,10 L15,10 L15,15 L11,15 L11,10 L4,10 L4,15 L0,15 L0,9 Z " fill="#483C46" transform="translate(46,21)"/>
<path d="M0,0 L13,0 L13,4 L12,4 L12,7 L11,7 L11,9 L10,9 L10,11 L9,11 L9,14 L8,14 L8,16 L7,16 L7,18 L6,18 L6,21 L5,21 L5,23 L4,23 L4,25 L3,25 L3,28 L2,28 L2,30 L1,30 L1,33 L0,33 L0,35 L-1,35 L-1,37 L-2,37 L-2,40 L-3,40 L-3,42 L-4,42 L-4,45 L-5,45 L-5,47 L-6,47 L-6,49 L-7,49 L-7,52 L-8,52 L-8,54 L-9,54 L-9,56 L-10,56 L-10,59 L-11,59 L-11,61 L-12,61 L-12,64 L-13,64 L-13,66 L-14,66 L-14,68 L-15,68 L-15,70 L-16,70 L-16,71 L-29,71 L-29,67 L-28,67 L-28,65 L-27,65 L-27,62 L-26,62 L-26,60 L-25,60 L-25,58 L-24,58 L-24,55 L-23,55 L-23,53 L-22,53 L-22,51 L-21,51 L-21,48 L-20,48 L-20,46 L-19,46 L-19,43 L-18,43 L-18,41 L-17,41 L-17,39 L-16,39 L-16,36 L-15,36 L-15,34 L-14,34 L-14,32 L-13,32 L-13,29 L-12,29 L-12,27 L-11,27 L-11,24 L-10,24 L-10,22 L-9,22 L-9,20 L-8,20 L-8,17 L-7,17 L-7,15 L-6,15 L-6,12 L-5,12 L-5,10 L-4,10 L-4,8 L-3,8 L-3,5 L-2,5 L-2,3 L-1,3 L-1,1 L0,1 Z " fill="#171716" transform="translate(94,63)"/>
<path d="M0,0 L7,0 L7,2 L6,2 L6,4 L5,4 L5,6 L4,6 L4,9 L3,9 L3,11 L2,11 L2,14 L1,14 L1,16 L0,16 L0,18 L-1,18 L-1,21 L-2,21 L-2,23 L-3,23 L-3,25 L-4,25 L-4,28 L-5,28 L-5,30 L-6,30 L-6,33 L-7,33 L-7,35 L-8,35 L-8,37 L-9,37 L-9,40 L-10,40 L-10,42 L-11,42 L-11,44 L-12,44 L-12,47 L-13,47 L-13,49 L-14,49 L-14,52 L-15,52 L-15,54 L-16,54 L-16,56 L-17,56 L-17,59 L-18,59 L-18,61 L-19,61 L-19,64 L-26,64 L-26,61 L-25,61 L-25,59 L-24,59 L-24,56 L-23,56 L-23,54 L-22,54 L-22,52 L-21,52 L-21,49 L-20,49 L-20,47 L-19,47 L-19,45 L-18,45 L-18,42 L-17,42 L-17,40 L-16,40 L-16,37 L-15,37 L-15,35 L-14,35 L-14,33 L-13,33 L-13,30 L-12,30 L-12,28 L-11,28 L-11,25 L-10,25 L-10,23 L-9,23 L-9,21 L-8,21 L-8,18 L-7,18 L-7,16 L-6,16 L-6,14 L-5,14 L-5,11 L-4,11 L-4,9 L-3,9 L-3,6 L-2,6 L-2,4 L-1,4 L-1,2 L0,2 Z " fill="#EDECE0" transform="translate(96,66)"/>
<path d="M0,0 L2,0 L2,1 L4,1 L4,2 L5,2 L5,3 L7,3 L7,4 L8,4 L8,5 L9,5 L9,6 L11,6 L11,7 L12,7 L12,8 L14,8 L14,9 L15,9 L15,10 L17,10 L17,11 L19,11 L19,12 L20,12 L20,13 L21,13 L21,23 L20,23 L20,24 L18,24 L18,25 L16,25 L16,26 L15,26 L15,27 L13,27 L13,28 L12,28 L12,29 L10,29 L10,30 L9,30 L9,31 L7,31 L7,32 L6,32 L6,33 L5,33 L5,34 L3,34 L3,35 L2,35 L2,36 L0,36 L0,27 L1,27 L1,25 L3,25 L3,24 L5,24 L5,23 L6,23 L6,22 L8,22 L8,21 L9,21 L9,20 L11,20 L11,19 L12,19 L12,18 L13,18 L13,17 L11,17 L11,16 L10,16 L10,15 L9,15 L9,14 L7,14 L7,13 L6,13 L6,12 L4,12 L4,11 L3,11 L3,10 L1,10 L1,9 L0,9 Z " fill="#0D0D0D" transform="translate(106,80)"/>
<path d="M0,0 L2,0 L2,9 L1,9 L1,10 L0,10 L0,11 L-2,11 L-2,12 L-3,12 L-3,13 L-5,13 L-5,14 L-6,14 L-6,15 L-7,15 L-7,16 L-9,16 L-9,17 L-10,17 L-10,19 L-8,19 L-8,20 L-7,20 L-7,21 L-6,21 L-6,22 L-4,22 L-4,23 L-3,23 L-3,24 L-1,24 L-1,25 L0,25 L0,26 L2,26 L2,36 L1,36 L1,35 L-1,35 L-1,34 L-2,34 L-2,33 L-4,33 L-4,32 L-5,32 L-5,31 L-6,31 L-6,30 L-8,30 L-8,29 L-9,29 L-9,28 L-11,28 L-11,27 L-12,27 L-12,26 L-14,26 L-14,25 L-15,25 L-15,24 L-17,24 L-17,23 L-18,23 L-18,22 L-19,22 L-19,13 L-18,13 L-18,12 L-16,12 L-16,11 L-14,11 L-14,10 L-13,10 L-13,9 L-11,9 L-11,8 L-10,8 L-10,7 L-8,7 L-8,6 L-7,6 L-7,5 L-6,5 L-6,4 L-4,4 L-4,3 L-3,3 L-3,2 L-1,2 L-1,1 L0,1 Z " fill="#090909" transform="translate(64,80)"/>
<path d="M0,0 L6,0 L6,1 L8,1 L8,2 L13,2 L13,7 L12,7 L12,4 L10,4 L10,7 L8,7 L8,3 L7,3 L7,7 L6,7 L6,8 L0,8 L0,7 L-1,7 L-1,3 L0,3 Z " fill="#8B767B" transform="translate(40,38)"/>
<path d="M0,0 L2,0 L2,2 L3,2 L3,3 L2,3 L2,6 L3,6 L3,5 L5,5 L5,4 L6,4 L6,1 L7,1 L7,0 L12,0 L12,1 L14,1 L14,4 L13,4 L13,8 L8,8 L8,7 L5,7 L5,6 L4,6 L4,7 L0,7 L0,3 L-1,3 L-1,2 L0,2 Z " fill="#8A757A" transform="translate(118,38)"/>
<path d="M0,0 L4,0 L4,1 L5,1 L5,2 L6,2 L6,1 L7,1 L7,0 L10,0 L10,1 L8,1 L8,2 L10,2 L10,3 L11,3 L11,5 L6,5 L6,4 L5,4 L5,5 L0,5 L0,4 L-1,4 L-1,1 L0,1 Z " fill="#703945" transform="translate(104,40)"/>
<path d="M0,0 L4,0 L4,3 L1,3 L1,6 L3,6 L3,5 L4,5 L4,7 L0,7 L0,6 L-1,6 L-1,1 L0,1 Z " fill="#5B2F38" transform="translate(77,38)"/>
<path d="M0,0 L3,0 L3,1 L4,1 L4,4 L3,4 L3,5 L-1,5 L-1,1 L0,1 Z " fill="#6D3843" transform="translate(84,40)"/>
<path d="M0,0 L4,0 L4,1 L5,1 L5,3 L1,3 L1,4 L4,4 L4,5 L0,5 L0,4 L-1,4 L-1,1 L0,1 Z " fill="#4A262E" transform="translate(104,40)"/>
<path d="M0,0 L3,0 L3,1 L5,1 L5,3 L1,3 L1,4 L4,4 L4,5 L0,5 L0,4 L-1,4 L-1,1 L0,1 Z " fill="#47242C" transform="translate(56,40)"/>
<path d="M0,0 L4,0 L4,1 L5,1 L5,5 L3,5 L3,2 L2,2 L2,3 L1,3 L1,5 L0,5 Z " fill="#47252C" transform="translate(90,40)"/>
<path d="M0,0 L5,0 L5,5 L4,5 L4,2 L2,2 L2,5 L0,5 Z " fill="#371C22" transform="translate(48,40)"/>
<path d="M0,0 L2,0 L2,1 L3,1 L3,0 L5,0 L5,2 L4,2 L4,4 L5,4 L5,5 L3,5 L3,4 L2,4 L2,5 L0,5 L0,4 L1,4 L1,1 L0,1 Z " fill="#361C21" transform="translate(62,40)"/>
<path d="M0,0 L2,0 L2,2 L3,2 L3,3 L2,3 L2,6 L4,6 L4,7 L0,7 L0,3 L-1,3 L-1,2 L0,2 Z " fill="#582E36" transform="translate(118,38)"/>
</svg>
